<?xml version="1.0" encoding="utf-8"?>
<!DOCTYPE svg PUBLIC "-//W3C//DTD SVG 1.1//EN" "http://www.w3.org/Graphics/SVG/1.1/DTD/svg11.dtd">
<svg version="1.1" id="Layer_1" xmlns="http://www.w3.org/2000/svg" xmlns:xlink="http://www.w3.org/1999/xlink" x="0px" y="0px"
	 width="115.211px" height="40.131px" viewBox="-2 -2 117 42" enable-background="new 0 0 115.211 40.131"
	 xml:space="preserve">
<defs>
  <path id="brik" fill="#FFFFFF" d="M38.716,21.662V0l-2.708,0.001c-1.441,0-2.708,1.267-2.708,2.708l0.001,21.661
    c0,1.441,1.267,2.708,2.708,2.708h16.245c1.441,0,2.708-1.267,2.708-2.708l0.001-16.246c0-1.441-1.267-2.708-2.708-2.708h-9.476
    c-1.441,0-2.708,1.267-2.708,2.708l-0.001,2.708h9.477v10.83H38.716z M112.471,5.416V7.58h0.502V5.917h0.611V7.58h0.501V5.917
    h0.416c0.099,0,0.208,0.074,0.208,0.196V7.58h0.502V6.063c0-0.366-0.307-0.647-0.648-0.647H112.471z M110.648,5.917V7.58h0.502
    V5.917h0.82V5.416h-2.154v0.501H110.648z M92.872,27.08h2.708v-6.124l1.557-1.558l6.914,6.914c1.02,1.02,2.811,1.02,3.83,0
    l1.915-1.914l-8.829-8.828l7.475-7.476l-1.914-1.915c-1.02-1.019-2.812-1.019-3.83,0l-7.117,7.117V0l-2.708,0.001
    c-1.44,0-2.708,1.267-2.708,2.708v21.662C90.164,25.812,91.432,27.08,92.872,27.08 M82.041,27.08h2.708V5.415l-2.708,0.001
    c-1.441,0-2.708,1.267-2.708,2.708v16.247C79.333,25.812,80.6,27.08,82.041,27.08 M63.087,27.079l2.707,0.001V10.832h10.831
    l-0.001-2.708c0-1.441-1.267-2.708-2.708-2.708l-8.122-0.001h-2.707c-1.442,0-2.709,1.267-2.709,2.709v16.247
    C60.378,25.812,61.645,27.079,63.087,27.079"/>
  <path id="flake" fill="#AAC32C" d="M19.252,17.31l-4.198,2.424l0.001,4.849l4.198,2.424l4.199-2.424l-0.001-4.849
    L19.252,17.31z M8.397,11.188L4.198,8.764L0,11.188l0.001,4.849L4.2,18.46l4.198-2.425L8.397,11.188z M9.134,9.769l4.198-2.425
    l-0.001-4.848L9.133,0.073L4.934,2.497l0.001,4.848L9.134,9.769z M9.26,27.078l4.197-2.424v-4.849l-4.198-2.423L5.06,19.807v4.849
    L9.26,27.078z M19.127,9.696l4.199-2.425l-0.001-4.848L19.126,0l-4.198,2.425l0.001,4.847L19.127,9.696z M28.385,15.89v-4.848
    l-4.198-2.423l-4.199,2.424v4.848l4.2,2.424L28.385,15.89z"/>
	<filter id="dropshadow" height="130%">
	  <feGaussianBlur result="blur-out" in="SourceAlpha" stdDeviation="0.4"/>
    <feOffset dx="0" dy="0" in="blur-out" result="drop-shadow"/>
    <feMerge>
      <feMergeNode/>
      <feMergeNode in="SourceGraphic"/>
    </feMerge>
	</filter>
</defs>
<g>
  <use xlink:href="#flake" filter="url(#dropshadow)"/>
  <use xlink:href="#flake"/>
  <use xlink:href="#brik" filter="url(#dropshadow)"/>
  <use xlink:href="#brik"/>
</g>
</svg>
